:SAMPLES-PER-SECOND 24
:FULLY-SPECIFIED
:DEGREES
309
root  0.789222 41.1914 56.1182 179.705 -63.8411 173.041
RightUpLeg  -2.97729 -6.56402 -16.4614
RightLeg  24.447 6.77073 3.15311
RightFoot  9.28212 -1.86754 10.5851
RightToes  -1.74623e-010 0 -2.59999e-017
Spine  6.02479 -2.71348 -10.5721
Spine1  15.4111 -5.7796 5.98217
HEad  -19.4711 -31.9927 16.7164
LeftShoulder1  1.83215 -3.23889 -20.7634
LeftArm  23.2766 10.4938 -48.1367
LeftForeArm  136.452 -76.6817 -132.549
LeftHand  -0.0349474 5.52401 -2.00478
RightShoulder  2.95488 5.11882 28.3243
RightArm  -4.55266 -23.83 40.97
RightForeArm  3.29345 22.3394 5.04258
RightHand  0.108239 -3.90736 10.4985
LeftUpLeg  4.52942 11.6073 9.24459
LeftLeg  18.7109 0.438599 0.183716
LeftFoot  8.66392 1.68667 -9.80904
LeftToes  -6.27559e-011 -2.10356e-011 8.24929e-012
310
root  0.860164 39.8185 56.4054 -179.914 -64.0219 172.375
RightUpLeg  -4.73959 -6.87275 -17.2892
RightLeg  30.5139 6.38332 3.82385
RightFoot  0.663095 -1.37137 13.0341
RightToes  -1.74623e-010 0 -2.59999e-017
Spine  7.50435 -2.54548 -11.4572
Spine1  15.3657 -6.03212 6.10896
HEad  -20.6918 -31.1179 16.6815
LeftShoulder1  1.86188 -3.35417 -20.7401
LeftArm  22.3655 6.28606 -46.9058
LeftForeArm  127.91 -77.7042 -126.045
LeftHand  -0.0292168 5.3477 -0.104338
RightShoulder  2.95291 5.16831 28.0995
RightArm  -8.29924 -23.2801 40.9012
RightForeArm  2.66207 18.5678 6.95505
RightHand  0.0604642 -1.57248 2.12904
LeftUpLeg  2.32579 12.2129 9.1573
LeftLeg  24.4105 -2.24081 -0.761479
LeftFoot  -0.26735 1.22112 -12.5418
LeftToes  -6.27559e-011 -2.10356e-011 8.24929e-012
311
root  0.948223 38.1299 56.6129 -178.901 -64.2976 171.392
RightUpLeg  -7.24575 -8.18707 -18.1718
RightLeg  37.1615 4.70946 3.5669
RightFoot  -11.1586 -0.10668 12.1494
RightToes  -1.74623e-010 0 -2.59999e-017
Spine  7.36126 -2.37482 -13.1243
Spine1  17.2807 -6.49299 6.69177
HEad  -22.6821 -30.3076 16.726
LeftShoulder1  1.75541 -3.09705 -20.1439
LeftArm  21.3606 -0.419145 -46.6222
LeftForeArm  108.565 -79.2014 -109.962
LeftHand  0.0357369 8.44252 2.6204
RightShoulder  2.90564 5.07732 27.9048
RightArm  -15.245 -19.8585 39.8729
RightForeArm  5.81495 12.5399 10.1051
RightHand  -0.221826 -0.24761 -5.07757
LeftUpLeg  -0.945053 13.9477 9.41704
LeftLeg  33.0752 -3.96531 -2.41171
LeftFoot  -13.3007 -0.136517 -13.23
LeftToes  -6.27559e-011 -2.10356e-011 8.24929e-012
312
root  1.03766 37.0397 56.6737 -178.713 -64.2558 171.231
RightUpLeg  -9.67104 -8.13656 -18.2285
RightLeg  42.3376 3.65307 3.28685
RightFoot  -16.9358 0.398928 10.2581
RightToes  -1.74623e-010 0 -2.59999e-017
Spine  6.47433 -2.14092 -14.4486
Spine1  19.6657 -6.7214 7.15305
HEad  -24.1863 -30.402 17.4762
LeftShoulder1  1.68538 -2.81303 -20.2388
LeftArm  20.5632 -5.91601 -47.0118
LeftForeArm  93.0508 -80.0088 -90.9546
LeftHand  0.358471 14.465 5.33441
RightShoulder  2.99987 5.12512 28.8335
RightArm  -21.3305 -15.006 38.0135
RightForeArm  12.582 6.56549 11.2727
RightHand  -0.471 -1.00053 -12.4937
LeftUpLeg  -3.25192 16.0317 10.1872
LeftLeg  38.8957 -5.54711 -4.3667
LeftFoot  -19.5318 -0.75509 -12.0966
LeftToes  -6.27559e-011 -2.10356e-011 8.24929e-012
313
root  0.983252 37.2883 56.4958 179.427 -64.6801 172.918
RightUpLeg  -9.71699 -8.32281 -17.4641
RightLeg  43.4356 4.19636 3.96819
RightFoot  -14.1933 0.19316 11.6575
RightToes  -1.74623e-010 0 -2.59999e-017
Spine  5.98063 -2.32469 -14.4525
Spine1  20.2484 -7.09914 7.51493
HEad  -23.0344 -31.4212 17.721
LeftShoulder1  1.78916 -2.91594 -21.5012
LeftArm  18.8749 -3.57885 -48.0342
LeftForeArm  102.032 -80.3872 -91.7892
LeftHand  0.778806 17.6191 7.95216
RightShoulder  3.05583 5.17223 29.3042
RightArm  -21.6412 -13.6576 38.3066
RightForeArm  17.5746 7.31425 10.7472
RightHand  -0.368008 -3.21755 -19.5032
LeftUpLeg  -2.41335 15.6509 11.3497
LeftLeg  37.7051 -5.70031 -4.30381
LeftFoot  -17.4699 -0.549294 -12.0822
LeftToes  -6.27559e-011 -2.10356e-011 8.24929e-012
